<svg width="313" height="349" viewBox="0 -20 313 369" fill="none" xmlns="http://www.w3.org/2000/svg" overflow="visible">
<style>
  @keyframes float-map {
    0% { transform: translate(0px, 0px); }
    50% { transform: translate(1.5px, -2px); }
    100% { transform: translate(0px, 0px); }
  }
  @keyframes float-pin {
    0% { transform: translate(0px, 0px); }
    50% { transform: translate(0px, -6px); }
    100% { transform: translate(0px, 0px); }
  }
  .anim-map {
    animation: float-map 6s ease-in-out infinite;
  }
  .anim-pin {
    animation: float-pin 5s ease-in-out infinite;
    animation-delay: 0.5s;
  }
</style>
<g transform="translate(70, -10) scale(1.15)">
  <g class="anim-map">
    <path d="M89.4611 296.151C89.7535 296.264 90.0578 296.342 90.3682 296.385L128.444 301.7C129.365 301.832 130.304 301.646 131.105 301.173C131.907 300.701 132.524 299.97 132.855 299.1L165.629 213.82C165.841 213.268 165.932 212.677 165.895 212.086C165.858 211.496 165.694 210.92 165.415 210.399C165.135 209.878 164.747 209.423 164.276 209.065C163.804 208.708 163.261 208.456 162.684 208.327L126.878 200.337C126.602 200.275 126.334 200.177 126.083 200.046L91.2572 181.838C90.988 181.697 90.7039 181.587 90.4101 181.509L52.0832 171.291C51.1018 171.028 50.0578 171.138 49.1528 171.6C48.2478 172.061 47.546 172.842 47.1832 173.791L18.6062 248.15C18.3552 248.798 18.2731 249.499 18.3678 250.187C18.4624 250.875 18.7306 251.528 19.1472 252.084L29.0301 265.356C29.4952 265.981 30.1281 266.46 30.8552 266.739L52.4552 275.039C52.6101 275.098 52.7602 275.17 52.9042 275.252L88.8952 295.879C89.0766 295.984 89.2658 296.075 89.4611 296.151Z" fill="#D6D6E3"/>
    <path d="M71.7461 182.659L76.6131 183.959L89.5131 187.399L89.5361 187.404L107.194 196.637L113.747 200.064L123.589 205.209L123.859 205.27L134.083 207.55L139.024 208.65L159.178 213.15L127.539 295.477L106.771 292.577L101.679 291.865L90.8251 290.348L90.6991 290.332L55.8221 270.343L34.6021 262.188L24.9141 249.178L52.455 177.514L71.7461 182.659Z" fill="#E4E4E4"/>
    <path d="M46.1222 193.996L151.044 234.318L152.841 229.642L47.919 189.32L46.1222 193.996Z" fill="white"/>
    <path d="M40.1324 209.581L145.054 249.903L146.851 245.228L41.9293 204.906L40.1324 209.581Z" fill="white"/>
    <path d="M28.0353 241.062L132.957 281.384L134.754 276.709L29.8321 236.387L28.0353 241.062Z" fill="white"/>
    <path d="M71.7479 182.658L40.3359 264.393L45.0109 266.193L76.6109 183.96L71.7479 182.658Z" fill="white"/>
    <path d="M107.192 196.634L113.642 214.582L115.878 220.806L121.095 235.332L122.213 238.432L123.333 241.553L124.805 245.653L135.379 275.081L138.128 267.928L129.506 243.928L127.555 238.495L127.27 237.703L124.964 231.281L122.054 223.181L119.816 216.954L113.749 200.064L107.192 196.634Z" fill="white"/>
    <path d="M134.084 207.548L101.684 291.868L106.776 292.58L139.029 208.654L134.084 207.548Z" fill="white"/>
  </g>
  <g class="anim-pin">
    <path d="M0 63.946C0 99.263 63.946 177.936 63.946 177.936C63.946 177.936 127.894 99.262 127.894 63.946C127.894 46.9865 121.157 30.7216 109.165 18.7294C97.1724 6.73715 80.9075 0 63.948 0C46.9885 0 30.7235 6.73715 18.7313 18.7294C6.73912 30.7216 0.00195384 46.9865 0.00195312 63.946H0Z" fill="rgba(150, 150, 150, 0.3)" stroke="#999999" stroke-width="6"/>
    <path d="M34.7129 61.1661C34.7127 66.9479 36.427 72.5999 39.639 77.4073C42.8511 82.2148 47.4166 85.9618 52.7582 88.1746C58.0999 90.3873 63.9777 90.9663 69.6484 89.8385C75.3191 88.7107 80.528 85.9266 84.6164 81.8383C88.7048 77.75 91.4891 72.5412 92.6171 66.8705C93.7452 61.1999 93.1663 55.322 90.9537 49.9803C88.7412 44.6386 84.9943 40.073 80.187 36.8608C75.3796 33.6486 69.7276 31.9341 63.9459 31.9341C56.193 31.9341 48.7576 35.0138 43.2754 40.4959C37.7932 45.9779 34.7132 53.4132 34.7129 61.1661Z" fill="white"/>
    <path d="M63.947 224.087C73.4667 224.087 81.184 216.37 81.184 206.85C81.184 197.33 73.4667 189.613 63.947 189.613C54.4272 189.613 46.71 197.33 46.71 206.85C46.71 216.37 54.4272 224.087 63.947 224.087Z" fill="rgba(150, 150, 150, 0.4)"/>
  </g>
</g>
</svg>
